<svg data-v-423bf9ae="" xmlns="http://www.w3.org/2000/svg" viewBox="0 0 458 90" class="iconLeft"><!----><!----><!----><g data-v-423bf9ae="" id="7825c9d4-7b39-4bbb-9745-eb346761952f" fill="white" transform="matrix(4.2735045753955,0,0,4.2735045753955,216.0176698753702,2.7777749132829754)"><path d="M6.97 13.51L6.16 11.19L2.59 11.19L1.78 13.51L0.04 13.51L3.53 3.71L5.22 3.71L8.71 13.51L6.97 13.51ZM3.15 9.62L5.60 9.62L4.38 6.12L3.15 9.62ZM13.22 6.40L13.22 6.40Q14.21 6.40 14.92 6.89L14.92 6.89L14.92 6.89Q15.64 7.38 16.00 8.20L16.00 8.20L16.00 8.20Q16.37 9.03 16.37 10.02L16.37 10.02L16.37 10.02Q16.37 11.02 16.00 11.84L16.00 11.84L16.00 11.84Q15.64 12.67 14.92 13.16L14.92 13.16L14.92 13.16Q14.21 13.65 13.22 13.65L13.22 13.65L13.22 13.65Q12.59 13.65 12.14 13.52L12.14 13.52L12.14 13.52Q11.70 13.38 11.30 13.09L11.30 13.09L11.30 16.90L9.56 16.90L9.56 6.51L10.96 6.51L11.14 7.15L11.14 7.15Q11.59 6.78 12.08 6.59L12.08 6.59L12.08 6.59Q12.57 6.40 13.22 6.40L13.22 6.40ZM12.95 12.22L12.95 12.22Q13.72 12.22 14.15 11.62L14.15 11.62L14.15 11.62Q14.59 11.02 14.59 10.02L14.59 10.02L14.59 10.02Q14.59 9.03 14.15 8.43L14.15 8.43L14.15 8.43Q13.72 7.83 12.95 7.83L12.95 7.83L12.95 7.83Q12.08 7.83 11.65 8.41L11.65 8.41L11.65 8.41Q11.21 9.00 11.21 10.02L11.21 10.02L11.21 10.02Q11.21 11.05 11.65 11.63L11.65 11.63L11.65 11.63Q12.08 12.22 12.95 12.22L12.95 12.22ZM17.57 13.51L17.57 6.51L19.19 6.51L19.24 7.25L19.24 7.25Q19.54 6.90 20.03 6.64L20.03 6.64L20.03 6.64Q20.51 6.37 21.04 6.37L21.04 6.37L21.04 6.37Q21.21 6.37 21.35 6.40L21.35 6.40L21.22 8.11L21.22 8.11Q20.96 8.04 20.62 8.04L20.62 8.04L20.62 8.04Q20.19 8.04 19.82 8.24L19.82 8.24L19.82 8.24Q19.46 8.44 19.31 8.74L19.31 8.74L19.31 13.51L17.57 13.51ZM25.37 13.65L25.37 13.65Q24.26 13.65 23.45 13.16L23.45 13.16L23.45 13.16Q22.64 12.67 22.20 11.84L22.20 11.84L22.20 11.84Q21.77 11.02 21.77 10.02L21.77 10.02L21.77 10.02Q21.77 9.03 22.20 8.19L22.20 8.19L22.20 8.19Q22.64 7.35 23.45 6.86L23.45 6.86L23.45 6.86Q24.26 6.37 25.37 6.37L25.37 6.37L25.37 6.37Q26.47 6.37 27.29 6.86L27.29 6.86L27.29 6.86Q28.10 7.35 28.53 8.19L28.53 8.19L28.53 8.19Q28.97 9.03 28.97 10.02L28.97 10.02L28.97 10.02Q28.97 11.02 28.53 11.84L28.53 11.84L28.53 11.84Q28.10 12.67 27.29 13.16L27.29 13.16L27.29 13.16Q26.47 13.65 25.37 13.65L25.37 13.65ZM25.37 12.22L25.37 12.22Q26.22 12.22 26.71 11.62L26.71 11.62L26.71 11.62Q27.19 11.02 27.19 10.02L27.19 10.02L27.19 10.02Q27.19 9.02 26.71 8.41L26.71 8.41L26.71 8.41Q26.22 7.80 25.37 7.80L25.37 7.80L25.37 7.80Q24.51 7.80 24.03 8.41L24.03 8.41L24.03 8.41Q23.55 9.02 23.55 10.02L23.55 10.02L23.55 10.02Q23.55 11.02 24.03 11.62L24.03 11.62L24.03 11.62Q24.51 12.22 25.37 12.22L25.37 12.22ZM32.09 13.51L29.40 6.51L31.11 6.51L32.83 11.35L34.55 6.51L36.26 6.51L33.57 13.51L32.09 13.51ZM38.63 13.65L38.63 13.65Q37.76 13.65 37.18 13.08L37.18 13.08L37.18 13.08Q36.60 12.52 36.60 11.55L36.60 11.55L36.60 11.55Q36.60 10.64 37.25 10.09L37.25 10.09L37.25 10.09Q37.91 9.53 38.81 9.30L38.81 9.30L38.81 9.30Q39.70 9.07 40.53 9.04L40.53 9.04L40.53 9.04Q40.50 8.43 40.22 8.16L40.22 8.16L40.22 8.16Q39.93 7.90 39.27 7.90L39.27 7.90L39.27 7.90Q38.81 7.90 38.37 8.02L38.37 8.02L38.37 8.02Q37.93 8.15 37.35 8.43L37.35 8.43L37.20 7.01L37.20 7.01Q38.47 6.40 39.75 6.40L39.75 6.40L39.75 6.40Q40.98 6.40 41.63 7.07L41.63 7.07L41.63 7.07Q42.28 7.74 42.28 9.21L42.28 9.21L42.28 11.10L42.28 11.10Q42.28 11.63 42.33 11.87L42.33 11.87L42.33 11.87Q42.38 12.10 42.50 12.16L42.50 12.16L42.50 12.16Q42.62 12.22 42.90 12.22L42.90 12.22L43.12 12.22L42.97 13.65L42.34 13.65L42.34 13.65Q41.76 13.65 41.37 13.43L41.37 13.43L41.37 13.43Q40.98 13.22 40.77 12.84L40.77 12.84L40.77 12.84Q40.43 13.22 39.85 13.43L39.85 13.43L39.85 13.43Q39.27 13.65 38.63 13.65L38.63 13.65ZM39.35 12.32L39.35 12.32Q39.62 12.32 39.96 12.19L39.96 12.19L39.96 12.19Q40.29 12.05 40.54 11.82L40.54 11.82L40.54 10.22L40.54 10.22Q39.70 10.26 39.06 10.58L39.06 10.58L39.06 10.58Q38.42 10.91 38.42 11.48L38.42 11.48L38.42 11.48Q38.42 11.91 38.64 12.12L38.64 12.12L38.64 12.12Q38.86 12.32 39.35 12.32L39.35 12.32ZM48.75 13.65L48.75 13.65Q47.88 13.65 47.30 13.08L47.30 13.08L47.30 13.08Q46.72 12.52 46.72 11.55L46.72 11.55L46.72 11.55Q46.72 10.64 47.38 10.09L47.38 10.09L47.38 10.09Q48.03 9.53 48.93 9.30L48.93 9.30L48.93 9.30Q49.83 9.07 50.65 9.04L50.65 9.04L50.65 9.04Q50.62 8.43 50.34 8.16L50.34 8.16L50.34 8.16Q50.05 7.90 49.39 7.90L49.39 7.90L49.39 7.90Q48.93 7.90 48.49 8.02L48.49 8.02L48.49 8.02Q48.05 8.15 47.47 8.43L47.47 8.43L47.32 7.01L47.32 7.01Q48.59 6.40 49.87 6.40L49.87 6.40L49.87 6.40Q51.10 6.40 51.75 7.07L51.75 7.07L51.75 7.07Q52.40 7.74 52.40 9.21L52.40 9.21L52.40 11.10L52.40 11.10Q52.40 11.63 52.45 11.87L52.45 11.87L52.45 11.87Q52.50 12.10 52.62 12.16L52.62 12.16L52.62 12.16Q52.74 12.22 53.02 12.22L53.02 12.22L53.24 12.22L53.09 13.65L52.46 13.65L52.46 13.65Q51.88 13.65 51.49 13.43L51.49 13.43L51.49 13.43Q51.10 13.22 50.89 12.84L50.89 12.84L50.89 12.84Q50.55 13.22 49.97 13.43L49.97 13.43L49.97 13.43Q49.39 13.65 48.75 13.65L48.75 13.65ZM49.48 12.32L49.48 12.32Q49.74 12.32 50.08 12.19L50.08 12.19L50.08 12.19Q50.41 12.05 50.67 11.82L50.67 11.82L50.67 10.22L50.67 10.22Q49.83 10.26 49.18 10.58L49.18 10.58L49.18 10.58Q48.54 10.91 48.54 11.48L48.54 11.48L48.54 11.48Q48.54 11.91 48.76 12.12L48.76 12.12L48.76 12.12Q48.99 12.32 49.48 12.32L49.48 12.32ZM54.21 13.51L54.21 6.51L55.94 6.51L55.94 13.51L54.21 13.51ZM53.70 5.53L53.70 4.42L56.46 2.86L56.46 4.47L53.70 5.53Z"></path></g><!----><g data-v-423bf9ae="" id="e9a8130c-ff93-4c95-b21a-1f60c5af67cf" transform="matrix(1.5327236037236547,0,0,1.5327236037236547,0.9056893616861004,-53.79502052004307)" stroke="none" fill="white"><path d="M58.781 35.281L27.718 66.25 14.749 53.094l-5.688 5.625 15.781 16 2.844 2.844 2.844-2.844 33.906-33.781-5.656-5.656zM3.5 38C1.533 38 0 39.533 0 41.5v49C0 92.467 1.533 94 3.5 94h49c1.967 0 3.5-1.533 3.5-3.5V54.094l-4 4V90H4V42h43.188l4-4H3.5zM68 50v4h60v-4H68zm0 12v4h50v-4H68zm0 12v4h54v-4H68z"></path></g><!----></svg>